<?xml version="1.0" encoding="UTF-8" standalone="no"?>
<!DOCTYPE svg PUBLIC "-//W3C//DTD SVG 1.1//EN"
 "http://www.w3.org/Graphics/SVG/1.1/DTD/svg11.dtd">
<!-- Generated by graphviz version 2.42.3 (20191010.1750)
 -->
<!-- Title: snakemake_dag Pages: 1 -->
<svg width="154pt" height="188pt"
 viewBox="0.00 0.00 154.00 188.00" xmlns="http://www.w3.org/2000/svg" xmlns:xlink="http://www.w3.org/1999/xlink">
<g id="graph0" class="graph" transform="scale(1 1) rotate(0) translate(4 184)">
<title>snakemake_dag</title>
<polygon fill="white" stroke="transparent" points="-4,4 -4,-184 150,-184 150,4 -4,4"/>
<!-- 0 -->
<g id="node1" class="node">
<title>0</title>
<path fill="none" stroke="#56d8d8" stroke-width="2" d="M94.5,-36C94.5,-36 51.5,-36 51.5,-36 45.5,-36 39.5,-30 39.5,-24 39.5,-24 39.5,-12 39.5,-12 39.5,-6 45.5,0 51.5,0 51.5,0 94.5,0 94.5,0 100.5,0 106.5,-6 106.5,-12 106.5,-12 106.5,-24 106.5,-24 106.5,-30 100.5,-36 94.5,-36"/>
<text text-anchor="middle" x="73" y="-15.5" font-family="sans" font-size="10.00">plot_quals</text>
</g>
<!-- 1 -->
<g id="node2" class="node">
<title>1</title>
<path fill="none" stroke="#d85656" stroke-width="2" d="M123.5,-108C123.5,-108 22.5,-108 22.5,-108 16.5,-108 10.5,-102 10.5,-96 10.5,-96 10.5,-84 10.5,-84 10.5,-78 16.5,-72 22.5,-72 22.5,-72 123.5,-72 123.5,-72 129.5,-72 135.5,-78 135.5,-84 135.5,-84 135.5,-96 135.5,-96 135.5,-102 129.5,-108 123.5,-108"/>
<text text-anchor="middle" x="73" y="-87.5" font-family="sans" font-size="10.00">remove_host_genome</text>
</g>
<!-- 1&#45;&gt;0 -->
<g id="edge1" class="edge">
<title>1&#45;&gt;0</title>
<path fill="none" stroke="grey" stroke-width="2" d="M73,-71.7C73,-63.98 73,-54.71 73,-46.11"/>
<polygon fill="grey" stroke="grey" stroke-width="2" points="76.5,-46.1 73,-36.1 69.5,-46.1 76.5,-46.1"/>
</g>
<!-- 2 -->
<g id="node3" class="node">
<title>2</title>
<path fill="none" stroke="#d6d856" stroke-width="2" d="M134,-180C134,-180 12,-180 12,-180 6,-180 0,-174 0,-168 0,-168 0,-156 0,-156 0,-150 6,-144 12,-144 12,-144 134,-144 134,-144 140,-144 146,-150 146,-156 146,-156 146,-168 146,-168 146,-174 140,-180 134,-180"/>
<text text-anchor="middle" x="73" y="-159.5" font-family="sans" font-size="10.00">quality_control_trimgalore</text>
</g>
<!-- 2&#45;&gt;1 -->
<g id="edge2" class="edge">
<title>2&#45;&gt;1</title>
<path fill="none" stroke="grey" stroke-width="2" d="M73,-143.7C73,-135.98 73,-126.71 73,-118.11"/>
<polygon fill="grey" stroke="grey" stroke-width="2" points="76.5,-118.1 73,-108.1 69.5,-118.1 76.5,-118.1"/>
</g>
</g>
</svg>
